# xmcd CD database file
#
# Track frame offsets:
#	150
#	23602
#	97987
#	119835
#	146685
#	187745
#	216005
#	252952
#
# Disc length: 3698 seconds
#
# Revision: 2
# Processed by: cddbd v1.4PL0 Copyright (c) Steve Scherf et al.
# Submitted via: CDex 1.51
#
DISCID=690e7008
DTITLE=Nowhereland - Nowhereland
DYEAR=2000
DGENRE=Jazz
TTITLE0=Kaspar, Melchior and Balthazar
TTITLE1=Whales
TTITLE2=Avalokiteshvara
TTITLE3=Zi
TTITLE4=Blues for God
TTITLE5=Awakening
TTITLE6=Troll
TTITLE7=Chenrezig
EXTD=YEAR: 2000
EXTT0=
EXTT1=
EXTT2=
EXTT3=
EXTT4=
EXTT5=
EXTT6=
EXTT7=
PLAYORDER=
